<svg width="270" height="237" viewBox="0 0 270 237" fill="none" xmlns="http://www.w3.org/2000/svg">
<path fill-rule="evenodd" clip-rule="evenodd" d="M22.6729 102.937L66.9274 92.5278C66.9727 92.2741 67.0288 92.0198 67.0962 91.7657L81.9313 35.6528L108.317 29.4469L108.258 29.6814L93.2811 86.3294L148.701 73.2948L148.754 73.091L164.113 16.3235L190.573 10.1001L190.53 10.2663L175.16 67.0717L250.14 49.4367L239.937 16.0153C237.18 6.98445 226.605 1.62515 216.316 4.04496L26.1076 48.782C15.8195 51.2018 9.71393 60.4844 12.4707 69.5151L22.6729 102.937ZM22.6993 102.937H258.189V216.608C258.189 225.956 249.555 233.536 238.904 233.536H41.985C31.3339 233.536 22.6993 225.956 22.6993 216.608V102.937ZM64.6278 187.633C64.6278 181.791 70.0245 177.053 76.6813 177.053H102.997C109.654 177.053 115.05 181.791 115.05 187.633C115.05 193.477 109.654 198.213 102.997 198.213H76.6813C70.0245 198.213 64.6278 193.477 64.6278 187.633Z" fill="#4A6F8C"/>
</svg>
